<svg version="1" xmlns="http://www.w3.org/2000/svg" width="682.667" height="682.667" viewBox="0 0 512.000000 512.000000"><path d="M258.6 27.5c-.9 1.3-1.6 2.7-1.6 3 0 .7-3.7 8.7-13.6 29.3-3.5 7.3-6.4 13.4-6.4 13.7 0 .2-3.4 7.4-7.5 16s-7.5 15.8-7.5 16c0 .1-2.9 6.3-6.4 13.6-3.5 7.4-11.3 24-17.4 36.9-12.4 26.6-17.1 36.6-23.2 49.5-2.4 4.9-5.7 12.1-7.5 16-1.8 3.8-5.3 11.3-7.7 16.5-2.5 5.2-6.2 13.1-8.3 17.5-2.1 4.4-5.8 12.3-8.2 17.5-2.5 5.2-6.1 12.9-8 17-2 4.1-5.2 11.1-7.3 15.5-4.8 10.2-11.3 24-15.5 33-1.8 3.8-5.4 11.5-8 17-2.6 5.5-6 12.7-7.5 16-5.9 12.6-18.5 39.6-23 49-11.5 24.1-16 33.8-16 34.1 0 .2 21.7.4 48.3.4h48.3l3.2-6.8c1.7-3.7 6.4-13.7 10.5-22.2s8.6-18 9.9-21c1.4-3 5.4-11.4 8.8-18.5 3.4-7.2 7.9-16.6 10-21 2.1-4.4 6.1-13 9-19 2.9-6.1 6.9-14.6 9-19 2.1-4.4 6.3-13.4 9.5-20s7.2-15.2 9-19c1.8-3.9 6.1-12.9 9.5-20 3.3-7.2 8.2-17.5 10.8-23 6.9-15 6.4-14.6 9.7-7.3 4 9 8.9 19.5 15.6 33.7 3.3 6.8 5.9 12.5 5.9 12.6 0 .2 3.6 7.9 8 17.1 4.4 9.1 8 16.8 8 16.9 0 .2 3.2 6.9 7 15 3.9 8.1 7 14.8 7 15 0 .1 2.8 6.1 6.1 13.1 3.4 7.1 12.9 27.3 21.1 44.9 8.2 17.6 16.8 35.7 19.1 40.2l4.1 8.3h48.3c26.6 0 48.3-.3 48.3-.6 0-.7-3.6-8.4-17.3-37.4-5.9-12.6-11.3-24.1-14.7-31.5-1.5-3.3-5.3-11.4-8.5-18-3.1-6.6-7-14.7-8.5-18-1.5-3.3-4.9-10.5-7.5-16-2.6-5.5-5.8-12.5-7.2-15.5-1.4-3-5.4-11.5-8.9-18.9-3.5-7.3-6.4-13.5-6.4-13.6 0-.2-3.1-6.9-7-15-3.8-8.1-7-14.8-7-15 0-.2-2.7-6.1-6.1-13.1-3.3-7-7.6-16.1-9.6-20.3-12.6-27-16.4-35.2-22.3-47.6-2.9-6.1-6.4-13.7-8-17-1.5-3.3-5.1-10.9-7.9-16.9-2.8-5.9-5.1-11-5.1-11.1 0-.2-3.4-7.5-7.6-16.2-7.9-16.5-11.2-23.5-16.2-34.3-1.6-3.6-4.8-10.4-7.1-15.3-2.2-4.8-6-12.6-8.2-17.5-2.3-4.8-5.4-11.5-7-15-1.6-3.4-3.1-6.2-3.3-6.2-.2 0-1.1 1.1-2 2.5z"/></svg>